<svg width="32" height="32" viewBox="0 0 32 32" fill="none" xmlns="http://www.w3.org/2000/svg">
<path opacity="0.35" d="M5.33331 25.3333V6.66667C5.33331 4.45733 7.12398 2.66667 9.33331 2.66667H17.0098C18.0707 2.66667 19.0881 3.08809 19.8382 3.83824L25.4951 9.49509C26.2452 10.2452 26.6666 11.2627 26.6666 12.3235V25.3333C26.6666 27.5427 24.876 29.3333 22.6666 29.3333H9.33331C7.12398 29.3333 5.33331 27.5427 5.33331 25.3333Z" fill="#848EA7"/>
<path d="M17 8.33333V3.41422C17 2.52331 18.0771 2.07714 18.7071 2.70711L26.2929 10.2929C26.9229 10.9229 26.4767 12 25.5858 12H20.6667C18.6408 12 17 10.3592 17 8.33333Z" fill="#848EA7"/>
</svg>
