<svg width="32" height="32" viewBox="0 0 32 32" fill="none" xmlns="http://www.w3.org/2000/svg">
<path d="M3 24C3 25.1046 3.89543 26 5 26H27C28.1046 26 29 25.1046 29 24V8C29 6.89543 28.1046 6 27 6H16.2659C15.7355 6 15.2268 5.78929 14.8517 5.41421L13.7188 4.28125V4.28125C13.5176 4.10019 13.2565 4 12.9858 4H5C3.89543 4 3 4.89543 3 6L3 24ZM7 24C5.89543 24 5 23.1046 5 22L5 12C5 10.8954 5.89543 10 7 10H12.9858C13.2565 10 13.5176 9.89981 13.7188 9.71875V9.71875L14.8517 8.58579C15.2268 8.21071 15.7355 8 16.2659 8H25C26.1046 8 27 8.89543 27 10V22C27 23.1046 26.1046 24 25 24H7ZM6 8C5.44772 8 5 7.55228 5 7V7C5 6.44772 5.44772 6 6 6H12.1483C12.4135 6 12.6679 6.10536 12.8554 6.29289V6.29289C13.2459 6.68342 13.2459 7.31658 12.8554 7.70711V7.70711C12.6679 7.89464 12.4135 8 12.1483 8H6Z" fill="#988BC7"/>
</svg>
