<svg width="32" height="32" viewBox="0 0 32 32" fill="none" xmlns="http://www.w3.org/2000/svg">
<path d="M3 25C3 26.1046 3.89543 27 5 27H27.0158C27.479 27 27.8779 26.673 27.9688 26.2188V26.2188L30.4688 14.2188V14.2188C30.5978 13.5894 30.1171 13 29.4746 13H29.2214C28.5468 13 28 12.4532 28 11.7786V9C28 7.89543 27.1046 7 26 7H16.2659C15.7355 7 15.2268 6.78929 14.8517 6.41421L13.7188 5.28125V5.28125C13.5176 5.10019 13.2565 5 12.9858 5H5C3.89543 5 3 5.89543 3 7L3 25ZM5.65572 15.2521C5.56053 15.6329 5 15.5639 5 15.1714L5 8.19203C5 7.53369 5.53369 7 6.19203 7H11.7341C12.2645 7 12.7732 7.21071 13.1483 7.58579L14.2813 8.71875V8.71875C14.4824 8.89981 14.7435 9 15.0142 9H24C25.1046 9 26 9.89543 26 11V11C26 12.1046 25.1046 13 24 13H17.5142C17.2435 13 16.9824 13.1002 16.7812 13.2812V13.2812L15.6483 14.4142C15.2732 14.7893 14.7645 15 14.2341 15H5.97862C5.82589 15 5.69276 15.1039 5.65572 15.2521V15.2521ZM7.8428 25C6.54166 25 5.58694 23.7772 5.90252 22.5149L6.90252 18.5149C7.1251 17.6246 7.92507 17 8.8428 17H15.4858C15.7565 17 16.0176 16.8998 16.2188 16.7188V16.7188L17.3517 15.5858C17.7268 15.2107 18.2355 15 18.7659 15H25.8191C27.0886 15 28.0368 16.1674 27.7767 17.4099L26.5204 23.4099C26.3264 24.3364 25.5095 25 24.5629 25H7.8428Z" fill="#988BC7"/>
</svg>
