<svg width="32" height="32" viewBox="0 0 32 32" fill="none" xmlns="http://www.w3.org/2000/svg">
<path d="M27.1622 16.5H10.3036C9.77524 16.5 9.30713 16.8095 9.14521 17.2659L6.47291 24.7895C6.67866 24.7895 6.93797 24.7895 7.13216 24.7895H24.2367C24.5021 24.7895 24.7365 24.6331 24.8168 24.4037L27.4447 16.8493C27.4745 16.7631 27.4544 16.6757 27.4015 16.61C27.3473 16.5442 27.2621 16.5 27.1622 16.5ZM25.1315 10.4211H13.6291C12.5273 10.4211 11.4468 10.0768 10.5867 9.45229L9.54453 8.69518C9.11477 8.3824 8.57483 8.21053 8.02394 8.21053H5.65235C4.98092 8.21053 4.4349 8.70624 4.4349 9.31579V22.5066C4.4349 22.7514 4.4349 23.0852 4.4349 23.3244L6.82779 16.5879C7.31477 15.2129 8.7118 14.2895 10.3036 14.2895H26.349V11.5263C26.349 10.9168 25.803 10.4211 25.1315 10.4211ZM25.1315 8.21053C27.1458 8.21053 28.7839 9.69766 28.7839 11.5263V14.5912C29.0718 14.7426 29.3287 14.9443 29.5296 15.193C29.9867 15.7589 30.1206 16.4961 29.8875 17.1654L27.1385 25.0686C26.7361 26.2241 25.5698 27 24.2361 27H5.65235C3.63808 27 2 25.5129 2 23.6842V9.31579C2 7.48713 3.63808 6 5.65235 6H8.02394C9.12573 6 10.2062 6.34429 11.0663 6.96876L12.1091 7.72587C12.5382 8.03866 13.0782 8.21053 13.6291 8.21053H25.1315Z" fill="#848EA7"/>
</svg>
